<?xml version="1.0" encoding="UTF-8"?>
<svg xmlns="http://www.w3.org/2000/svg" xmlns:xlink="http://www.w3.org/1999/xlink" width="1832" height="1060" viewBox="0 0 1832 1060" font-family="Inter, system-ui, sans-serif">
  <defs>
        <marker id="arrow-end" markerWidth="8" markerHeight="8" refX="6" refY="4" orient="auto" markerUnits="strokeWidth">
            <path d="M1,1 L6,4 L1,7 z" fill="context-stroke" />
        </marker>
        <marker id="arrow-start" markerWidth="8" markerHeight="8" refX="2" refY="4" orient="auto" markerUnits="strokeWidth">
            <path d="M7,1 L2,4 L7,7 z" fill="context-stroke" />
        </marker>
  </defs>
  <rect width="100%" height="100%" fill="white" />
  <line x1="916.1" y1="130.0" x2="916.1" y2="239.0" stroke="#2d3748" stroke-width="2" marker-end="url(#arrow-end)" />
  <line x1="898.3" y1="290.0" x2="820.5" y2="399.2" stroke="#2d3748" stroke-width="2" marker-end="url(#arrow-end)" />
  <line x1="938.0" y1="290.0" x2="1033.5" y2="399.2" stroke="#2d3748" stroke-width="2" marker-end="url(#arrow-end)" />
  <polyline points="1056.0,400.0 1056.0,351.0 161.8,351.0 161.8,559.0" fill="none" stroke="#2d3748" stroke-width="2" marker-end="url(#arrow-end)" />
  <polyline points="1056.0,400.0 1056.0,351.0 378.7,351.0 378.7,559.0" fill="none" stroke="#2d3748" stroke-width="2" marker-end="url(#arrow-end)" />
  <line x1="992.7" y1="450.0" x2="715.3" y2="559.6" stroke="#2d3748" stroke-width="2" marker-end="url(#arrow-end)" />
  <line x1="1030.7" y1="450.0" x2="919.9" y2="559.3" stroke="#2d3748" stroke-width="2" marker-end="url(#arrow-end)" />
  <line x1="1065.1" y1="450.0" x2="1105.0" y2="559.1" stroke="#2d3748" stroke-width="2" marker-end="url(#arrow-end)" />
  <line x1="1104.2" y1="450.0" x2="1315.6" y2="559.5" stroke="#2d3748" stroke-width="2" marker-end="url(#arrow-end)" />
  <line x1="1145.1" y1="450.0" x2="1536.0" y2="559.7" stroke="#2d3748" stroke-width="2" marker-end="url(#arrow-end)" />
  <polyline points="180.5,610.0 396.8,900.0 671.8,940.0 946.8,980.0 1227.5,770.6" fill="none" stroke="#2d3748" stroke-width="2" marker-end="url(#arrow-end)" />
  <polyline points="378.7,610.0 378.7,819.0 1261.8,819.0 1261.8,771.0" fill="none" stroke="#2d3748" stroke-width="2" marker-end="url(#arrow-end)" />
  <line x1="746.5" y1="610.0" x2="1165.4" y2="719.7" stroke="#2d3748" stroke-width="2" marker-end="url(#arrow-end)" />
  <line x1="951.4" y1="610.0" x2="1203.4" y2="719.6" stroke="#2d3748" stroke-width="2" marker-end="url(#arrow-end)" />
  <line x1="1348.6" y1="610.0" x2="1278.4" y2="719.2" stroke="#2d3748" stroke-width="2" marker-end="url(#arrow-end)" />
  <polyline points="893.9,585.0 838.5,580.9 838.5,636.0 718.0,636.0 718.0,639.8 597.5,698.8 583.9,719.2" fill="none" stroke="#2d3748" stroke-width="2" marker-end="url(#arrow-end)" />
  <line x1="1028.9" y1="610.0" x2="653.3" y2="719.7" stroke="#2d3748" stroke-width="2" marker-end="url(#arrow-end)" />
  <polyline points="1114.5,585.0 1059.1,580.7 936.9,639.8 814.6,698.9 801.0,719.2" fill="none" stroke="#2d3748" stroke-width="2" marker-end="url(#arrow-end)" />
  <line x1="1308.4" y1="610.0" x2="1061.4" y2="719.6" stroke="#2d3748" stroke-width="2" marker-end="url(#arrow-end)" />
  <line x1="503.4" y1="720.0" x2="226.0" y2="610.4" stroke="#2d3748" stroke-width="2" marker-end="url(#arrow-end)" />
  <polyline points="566.7,745.0 622.1,749.1 742.6,690.2 863.1,631.2 876.7,610.8" fill="none" stroke="#2d3748" stroke-width="2" marker-end="url(#arrow-end)" />
  <polyline points="783.6,745.0 839.0,749.3 839.0,694.0 961.2,694.0 961.2,690.2 1083.5,631.1 1097.1,610.8" fill="none" stroke="#2d3748" stroke-width="2" marker-end="url(#arrow-end)" />
  <line x1="890.0" y1="450.0" x2="1275.8" y2="559.7" stroke="#2d3748" stroke-width="2" marker-end="url(#arrow-end)" />
  <rect x="846.1" y="80.0" width="140.0" height="50.0" rx="8" ry="8" fill="#fde68a" stroke="#2d3748" stroke-width="2" />
  <text x="916.1" y="105.0" fill="#1a202c" font-size="14" text-anchor="middle" dominant-baseline="middle">User</text>
  <rect x="771.4" y="240.0" width="289.4" height="50.0" rx="8" ry="8" fill="#fde68a" stroke="#2d3748" stroke-width="2" />
  <text x="916.1" y="265.0" fill="#1a202c" font-size="14" text-anchor="middle" dominant-baseline="middle">Pi or Feynman-embedded Pi shell</text>
  <rect x="672.2" y="400.0" width="259.8" height="50.0" rx="8" ry="8" fill="#fde68a" stroke="#2d3748" stroke-width="2" />
  <text x="802.1" y="425.0" fill="#1a202c" font-size="14" text-anchor="middle" dominant-baseline="middle">Prompt templates and skills</text>
  <rect x="952.0" y="400.0" width="208.0" height="50.0" rx="8" ry="8" fill="#fde68a" stroke="#2d3748" stroke-width="2" />
  <text x="1056.0" y="425.0" fill="#1a202c" font-size="14" text-anchor="middle" dominant-baseline="middle">Keating Pi extension</text>
  <rect x="80.0" y="560.0" width="163.6" height="50.0" rx="8" ry="8" fill="#fde68a" stroke="#2d3748" stroke-width="2" />
  <text x="161.8" y="585.0" fill="#1a202c" font-size="14" text-anchor="middle" dominant-baseline="middle">Lesson planner</text>
  <rect x="263.6" y="560.0" width="230.2" height="50.0" rx="8" ry="8" fill="#fde68a" stroke="#2d3748" stroke-width="2" />
  <text x="378.7" y="585.0" fill="#1a202c" font-size="14" text-anchor="middle" dominant-baseline="middle">Mermaid and oxdraw maps</text>
  <rect x="513.8" y="560.0" width="274.6" height="50.0" rx="8" ry="8" fill="#fde68a" stroke="#2d3748" stroke-width="2" />
  <text x="651.1" y="585.0" fill="#1a202c" font-size="14" text-anchor="middle" dominant-baseline="middle">Verification checklist engine</text>
  <rect x="808.4" y="560.0" width="171.0" height="50.0" rx="8" ry="8" fill="#fde68a" stroke="#2d3748" stroke-width="2" />
  <text x="893.9" y="585.0" fill="#1a202c" font-size="14" text-anchor="middle" dominant-baseline="middle">Benchmark suite</text>
  <rect x="999.4" y="560.0" width="230.2" height="50.0" rx="8" ry="8" fill="#fde68a" stroke="#2d3748" stroke-width="2" />
  <text x="1114.5" y="585.0" fill="#1a202c" font-size="14" text-anchor="middle" dominant-baseline="middle">Policy evolution engine</text>
  <rect x="1249.6" y="560.0" width="230.2" height="50.0" rx="8" ry="8" fill="#fde68a" stroke="#2d3748" stroke-width="2" />
  <text x="1364.7" y="585.0" fill="#1a202c" font-size="14" text-anchor="middle" dominant-baseline="middle">Prompt evolution engine</text>
  <rect x="451.6" y="720.0" width="230.2" height="50.0" rx="8" ry="8" fill="#fde68a" stroke="#2d3748" stroke-width="2" />
  <text x="566.7" y="745.0" fill="#1a202c" font-size="14" text-anchor="middle" dominant-baseline="middle">Current teaching policy</text>
  <rect x="701.8" y="720.0" width="163.6" height="50.0" rx="8" ry="8" fill="#fde68a" stroke="#2d3748" stroke-width="2" />
  <text x="783.6" y="745.0" fill="#1a202c" font-size="14" text-anchor="middle" dominant-baseline="middle">Policy archive</text>
  <rect x="885.4" y="720.0" width="237.6" height="50.0" rx="8" ry="8" fill="#fde68a" stroke="#2d3748" stroke-width="2" />
  <text x="1004.2" y="745.0" fill="#1a202c" font-size="14" text-anchor="middle" dominant-baseline="middle">Prompt evolution archive</text>
  <rect x="1499.8" y="560.0" width="252.4" height="50.0" rx="8" ry="8" fill="#fde68a" stroke="#2d3748" stroke-width="2" />
  <text x="1626.0" y="585.0" fill="#1a202c" font-size="14" text-anchor="middle" dominant-baseline="middle">Learner state and feedback</text>
  <rect x="1143.0" y="720.0" width="237.6" height="50.0" rx="8" ry="8" fill="#fde68a" stroke="#2d3748" stroke-width="2" />
  <text x="1261.8" y="745.0" fill="#1a202c" font-size="14" text-anchor="middle" dominant-baseline="middle">Artifacts under .keating</text>
</svg>
