<?xml version="1.0" encoding="UTF-8"?>
<svg xmlns="http://www.w3.org/2000/svg" xmlns:xlink="http://www.w3.org/1999/xlink" width="2960" height="1170" viewBox="0 0 2960 1170" font-family="Inter, system-ui, sans-serif">
  <defs>
        <marker id="arrow-end" markerWidth="8" markerHeight="8" refX="6" refY="4" orient="auto" markerUnits="strokeWidth">
            <path d="M1,1 L6,4 L1,7 z" fill="context-stroke" />
        </marker>
        <marker id="arrow-start" markerWidth="8" markerHeight="8" refX="2" refY="4" orient="auto" markerUnits="strokeWidth">
            <path d="M7,1 L2,4 L7,7 z" fill="context-stroke" />
        </marker>
  </defs>
  <rect width="100%" height="100%" fill="white" />
  <polyline points="2731.4,130.0 2731.4,499.0 1140.9,499.0 1140.9,451.0" fill="none" stroke="#2d3748" stroke-width="2" marker-end="url(#arrow-end)" />
  <line x1="1426.9" y1="290.0" x2="1194.8" y2="399.6" stroke="#2d3748" stroke-width="2" marker-end="url(#arrow-end)" />
  <polyline points="1140.9,450.0 1140.8,571.6 1144.9,575.9 1149.1,580.2 1295.6,585.0" fill="none" stroke="#2d3748" stroke-width="2" marker-end="url(#arrow-end)" />
  <line x1="1324.4" y1="610.0" x2="1450.3" y2="719.3" stroke="#2d3748" stroke-width="2" marker-end="url(#arrow-end)" />
  <line x1="2630.2" y1="130.0" x2="1537.7" y2="399.8" stroke="#2d3748" stroke-width="2" marker-end="url(#arrow-end)" />
  <line x1="1473.0" y1="290.0" x2="1442.7" y2="399.0" stroke="#2d3748" stroke-width="2" marker-end="url(#arrow-end)" />
  <line x1="2656.6" y1="130.0" x2="1850.2" y2="399.7" stroke="#2d3748" stroke-width="2" marker-end="url(#arrow-end)" />
  <line x1="1525.9" y1="290.0" x2="1727.6" y2="399.5" stroke="#2d3748" stroke-width="2" marker-end="url(#arrow-end)" />
  <line x1="1467.8" y1="450.0" x2="1608.9" y2="559.4" stroke="#2d3748" stroke-width="2" marker-end="url(#arrow-end)" />
  <line x1="1753.8" y1="450.0" x2="1663.3" y2="559.2" stroke="#2d3748" stroke-width="2" marker-end="url(#arrow-end)" />
  <polyline points="1335.2,265.0 988.7,265.0 988.7,905.0 1289.8,905.0" fill="none" stroke="#2d3748" stroke-width="2" marker-end="url(#arrow-end)" />
  <line x1="1479.9" y1="930.0" x2="1479.9" y2="1039.0" stroke="#2d3748" stroke-width="2" marker-end="url(#arrow-end)" />
  <polyline points="1454.9,1040.0 1279.9,865.0 1279.9,665.0 1279.9,465.0 1454.2,290.7" fill="none" stroke="#2d3748" stroke-width="2" marker-end="url(#arrow-end)" />
  <polyline points="1669.0,905.0 2176.7,905.0 2176.7,425.0 1946.1,425.0" fill="none" stroke="#2d3748" stroke-width="2" marker-end="url(#arrow-end)" />
  <line x1="1479.9" y1="770.0" x2="1479.9" y2="879.0" stroke="#2d3748" stroke-width="2" marker-end="url(#arrow-end)" />
  <rect x="80.0" y="80.0" width="607.6" height="50.0" rx="8" ry="8" fill="#fde68a" stroke="#2d3748" stroke-width="2" />
  <text x="383.8" y="105.0" fill="#1a202c" font-size="14" text-anchor="middle" dominant-baseline="middle">classDef source fill:#11233b,stroke:#8db5ff,color:#f8f5ec,stroke-width:1px</text>
  <rect x="707.6" y="80.0" width="607.6" height="50.0" rx="8" ry="8" fill="#fde68a" stroke="#2d3748" stroke-width="2" />
  <text x="1011.4" y="105.0" fill="#1a202c" font-size="14" text-anchor="middle" dominant-baseline="middle">classDef static fill:#173122,stroke:#8fd7b6,color:#f8f5ec,stroke-width:1px</text>
  <rect x="1335.2" y="80.0" width="615.0" height="50.0" rx="8" ry="8" fill="#fde68a" stroke="#2d3748" stroke-width="2" />
  <text x="1642.7" y="105.0" fill="#1a202c" font-size="14" text-anchor="middle" dominant-baseline="middle">classDef dynamic fill:#3a2317,stroke:#ff9b6b,color:#f8f5ec,stroke-width:1px</text>
  <rect x="1970.2" y="80.0" width="592.8" height="50.0" rx="8" ry="8" fill="#fde68a" stroke="#2d3748" stroke-width="2" />
  <text x="2266.6" y="105.0" fill="#1a202c" font-size="14" text-anchor="middle" dominant-baseline="middle">classDef eval fill:#2f2140,stroke:#d3a6ff,color:#f8f5ec,stroke-width:1px</text>
  <rect x="2583.0" y="80.0" width="296.8" height="50.0" rx="8" ry="8" fill="#fde68a" stroke="#2d3748" stroke-width="2" />
  <text x="2731.4" y="105.0" fill="#1a202c" font-size="14" text-anchor="middle" dominant-baseline="middle">topic[Topic Definition]:::source</text>
  <rect x="1335.2" y="240.0" width="289.4" height="50.0" rx="8" ry="8" fill="#fde68a" stroke="#2d3748" stroke-width="2" />
  <text x="1479.9" y="265.0" fill="#1a202c" font-size="14" text-anchor="middle" dominant-baseline="middle">policy[Teacher Policy]:::source</text>
  <rect x="1014.7" y="400.0" width="252.4" height="50.0" rx="8" ry="8" fill="#fde68a" stroke="#2d3748" stroke-width="2" />
  <text x="1140.9" y="425.0" fill="#1a202c" font-size="14" text-anchor="middle" dominant-baseline="middle">plan[Lesson Plan]:::source</text>
  <rect x="1143.5" y="560.0" width="304.2" height="50.0" rx="8" ry="8" fill="#fde68a" stroke="#2d3748" stroke-width="2" />
  <text x="1295.6" y="585.0" fill="#1a202c" font-size="14" text-anchor="middle" dominant-baseline="middle">map[Mermaid Meaning Map]:::static</text>
  <rect x="1324.1" y="720.0" width="311.6" height="50.0" rx="8" ry="8" fill="#fde68a" stroke="#2d3748" stroke-width="2" />
  <text x="1479.9" y="745.0" fill="#1a202c" font-size="14" text-anchor="middle" dominant-baseline="middle">oxdraw[oxdraw SVG Render]:::static</text>
  <rect x="1287.1" y="400.0" width="296.8" height="50.0" rx="8" ry="8" fill="#fde68a" stroke="#2d3748" stroke-width="2" />
  <text x="1435.5" y="425.0" fill="#1a202c" font-size="14" text-anchor="middle" dominant-baseline="middle">storyboard[Storyboard]:::dynamic</text>
  <rect x="1603.9" y="400.0" width="341.2" height="50.0" rx="8" ry="8" fill="#fde68a" stroke="#2d3748" stroke-width="2" />
  <text x="1774.5" y="425.0" fill="#1a202c" font-size="14" text-anchor="middle" dominant-baseline="middle">manifest[Animation Manifest]:::dynamic</text>
  <rect x="1467.7" y="560.0" width="348.6" height="50.0" rx="8" ry="8" fill="#fde68a" stroke="#2d3748" stroke-width="2" />
  <text x="1642.0" y="585.0" fill="#1a202c" font-size="14" text-anchor="middle" dominant-baseline="middle">scene[manim-web Scene Bundle]:::dynamic</text>
  <rect x="1290.8" y="880.0" width="378.2" height="50.0" rx="8" ry="8" fill="#fde68a" stroke="#2d3748" stroke-width="2" />
  <text x="1479.9" y="905.0" fill="#1a202c" font-size="14" text-anchor="middle" dominant-baseline="middle">learner[Synthetic Learner Benchmark]:::eval</text>
  <rect x="1335.2" y="1040.0" width="289.4" height="50.0" rx="8" ry="8" fill="#fde68a" stroke="#2d3748" stroke-width="2" />
  <text x="1479.9" y="1065.0" fill="#1a202c" font-size="14" text-anchor="middle" dominant-baseline="middle">evolve[Evolution Engine]:::eval</text>
</svg>
